# Blender v2.76 (sub 0) OBJ File: 'ASDS.blend'
# www.blender.org
o Bounding_box
v -20.631824 0.123453 37.000118
v 20.631828 0.123453 37.000118
v -20.631824 0.123453 -37.583645
v 20.631828 0.123453 -37.583645
v -20.631824 -3.851689 37.000118
v 20.631828 -3.851689 37.000118
v -20.631824 -3.851689 -37.583645
v 20.631828 -3.851689 -37.583645
v -20.631824 0.123453 -37.583645
v -20.631824 0.123453 -37.583645
v -20.631824 0.123453 37.000118
v -20.631824 0.123453 37.000118
v 20.631828 0.123453 37.000118
v 20.631828 0.123453 37.000118
v 20.631828 0.123453 -37.583645
v 20.631828 0.123453 -37.583645
v -20.631824 -3.851689 -37.583645
v -20.631824 -3.851689 -37.583645
v -20.631824 -3.851689 37.000118
v -20.631824 -3.851689 37.000118
v 20.631828 -3.851689 37.000118
v 20.631828 -3.851689 37.000118
v 20.631828 -3.851689 -37.583645
v 20.631828 -3.851689 -37.583645
vn 0.000000 -1.000000 0.000000
vn -1.000000 0.000000 0.000000
vn 0.000000 0.000000 1.000000
vn 1.000000 -0.000000 0.000000
vn 0.000000 0.000000 -1.000000
s 1
f 9//1 15//1 13//1
f 17//1 23//1 21//1
f 18//2 20//2 12//2
f 5//3 22//3 14//3
f 6//4 24//4 16//4
f 8//5 7//5 3//5
f 11//1 9//1 13//1
f 19//1 17//1 21//1
f 10//2 18//2 12//2
f 1//3 5//3 14//3
f 2//4 6//4 16//4
f 4//5 8//5 3//5
