# Blender v2.76 (sub 0) OBJ File: 'Cube.blend'
# www.blender.org
o Cube

v -1.000000 -1.000000 1.000000
v -1.000000 1.000000 1.000000
v -1.000000 -1.000000 -1.000000
v -1.000000 1.000000 -1.000000
v 1.000000 -1.000000 1.000000
v 1.000000 1.000000 1.000000
v 1.000000 -1.000000 -1.000000
v 1.000000 1.000000 -1.000000


vt 0.013761 0.347095
vt 0.319572 0.347095
vt 0.319572 0.652905
vt 0.347095 0.319572
vt 0.347095 0.013761
vt 0.652905 0.013761
vt 0.347095 0.652905
vt 0.347095 0.347095
vt 0.652905 0.347095
vt 0.319572 0.013761
vt 0.319572 0.319572
vt 0.013762 0.319572
vt 0.013762 0.986239
vt 0.013761 0.680428
vt 0.319572 0.680428
vt 0.986238 0.013761
vt 0.986239 0.319572
vt 0.680428 0.319572
vt 0.013762 0.652905
vt 0.652905 0.319572
vt 0.652905 0.652905
vt 0.013761 0.013762
vt 0.319572 0.986238
vt 0.680428 0.013762


vn -1.000000 0.000000 0.000000
vn 0.000000 0.000000 -1.000000
vn 1.000000 0.000000 0.000000
vn 0.000000 0.000000 1.000000
vn 0.000000 -1.000000 0.000000
vn 0.000000 1.000000 0.000000


f 4/1/1 3/2/1 1/3/1
f 8/4/2 7/5/2 3/6/2
f 6/7/3 5/8/3 7/9/3
f 2/10/4 1/11/4 5/12/4
f 3/13/5 7/14/5 5/15/5
f 8/16/6 4/17/6 2/18/6
f 2/19/1 4/1/1 1/3/1
f 4/20/2 8/4/2 3/6/2
f 8/21/3 6/7/3 7/9/3
f 6/22/4 2/10/4 5/12/4
f 1/23/5 3/13/5 5/15/5
f 6/24/6 8/16/6 2/18/6
