# Blender v2.76 (sub 0) OBJ File: 'Desk.blend'
# www.blender.org
v -0.272500 0.598229 -0.223125
v -0.272500 0.890223 -0.223125
v -0.227008 0.598229 -0.289407
v -0.227008 0.851642 -0.289407
v 0.272500 0.598229 -0.223125
v 0.272500 0.890223 -0.223125
v 0.227008 0.598229 -0.289407
v 0.227008 0.851642 -0.289407
v -0.242172 0.598229 -0.267313
v -0.257336 0.598229 -0.245219
v 0.029992 0.598229 -0.289407
v -0.029992 0.598229 -0.289407
v 0.257336 0.598229 -0.245219
v 0.242172 0.598229 -0.267313
v -0.036002 0.598229 -0.223125
v 0.036002 0.598229 -0.223125
v -0.033999 0.598229 -0.245219
v 0.033999 0.598229 -0.245219
v -0.031995 0.598229 -0.267313
v 0.031995 0.598229 -0.267313
v 0.029992 0.525765 -0.289407
v -0.029992 0.525765 -0.289407
v -0.036002 0.525765 -0.223125
v 0.036002 0.525765 -0.223125
v -0.033999 0.525765 -0.245219
v 0.033999 0.525765 -0.245219
v -0.031995 0.525765 -0.267313
v 0.031995 0.525765 -0.267313
v 0.398462 0.000001 -0.297546
v 0.395178 0.491828 -0.293988
v 0.398462 0.000001 -0.326010
v 0.395178 0.491828 -0.329568
v 0.424726 0.000001 -0.297546
v 0.428009 0.491828 -0.293988
v 0.424726 0.000001 -0.326010
v 0.428009 0.491828 -0.329568
v -0.424245 0.000001 -0.297546
v -0.427528 0.491828 -0.293988
v -0.424245 0.000001 -0.326010
v -0.427528 0.491828 -0.329568
v -0.397981 0.000001 -0.297546
v -0.394697 0.491828 -0.293988
v -0.397981 0.000001 -0.326010
v -0.394697 0.491828 -0.329568
v -0.424245 0.000001 0.324567
v -0.427528 0.491828 0.328125
v -0.424245 0.000001 0.296103
v -0.427528 0.491828 0.292545
v -0.397981 0.000001 0.324567
v -0.394697 0.491828 0.328125
v -0.397981 0.000001 0.296103
v -0.394697 0.491828 0.292545
v 0.398462 0.000001 0.324567
v 0.395178 0.491828 0.328125
v 0.398462 0.000001 0.296103
v 0.395178 0.491828 0.292545
v 0.424726 0.000001 0.324567
v 0.428009 0.491828 0.328125
v 0.424726 0.000001 0.296103
v 0.428009 0.491828 0.292545
v -0.455000 0.525765 0.352500
v 0.455000 0.525765 0.352500
v -0.455000 0.525765 -0.352500
v 0.455000 0.525765 -0.352500
v -0.433064 0.487595 -0.335506
v -0.433064 0.487595 0.335506
v 0.433064 0.487595 0.335506
v 0.433064 0.487595 -0.335506
vn -0.824500 0.000000 -0.565900
vn -0.000000 0.000000 -1.000000
vn 0.824500 0.000000 -0.565900
vn -0.000000 0.000000 1.000000
vn -0.000000 0.864200 -0.503100
vn 0.000000 -1.000000 0.000000
vn -0.995900 -0.000000 -0.090300
vn 0.995900 0.000000 -0.090300
vn -1.000000 -0.006700 0.000000
vn -0.000000 -0.007200 -1.000000
vn 1.000000 -0.006700 -0.000000
vn -0.000000 -0.007200 1.000000
vn 0.000000 1.000000 0.000000
vn -0.000000 0.406700 0.913500
vn 0.867000 0.498300 0.000000
vn -0.000000 0.406700 -0.913500
vn -0.867000 0.498300 0.000000
s off
f 4//1 10//1 1//1
f 8//2 11//2 4//2
f 5//3 13//3 8//3
f 2//4 15//4 6//4
f 15//4 23//4 24//4
f 8//5 4//5 2//5
f 3//6 19//6 17//6
f 11//2 21//2 22//2
f 25//7 23//7 17//7
f 27//6 28//6 26//6
f 7//6 16//6 18//6
f 16//8 26//8 18//8
f 32//9 31//9 29//9
f 36//10 35//10 31//10
f 34//11 33//11 35//11
f 30//12 29//12 33//12
f 31//6 35//6 33//6
f 36//13 32//13 30//13
f 40//9 39//9 37//9
f 44//10 43//10 39//10
f 42//11 41//11 43//11
f 38//12 37//12 41//12
f 39//6 43//6 41//6
f 44//13 40//13 38//13
f 48//9 47//9 45//9
f 52//10 51//10 47//10
f 50//11 49//11 51//11
f 46//12 45//12 49//12
f 47//6 51//6 49//6
f 52//13 48//13 46//13
f 56//9 55//9 53//9
f 60//10 59//10 55//10
f 58//11 57//11 59//11
f 54//12 53//12 57//12
f 55//6 59//6 57//6
f 60//13 56//13 54//13
f 63//6 64//6 62//6
f 67//13 68//13 65//13
f 63//14 65//14 68//14
f 61//15 66//15 65//15
f 62//16 67//16 66//16
f 64//17 68//17 67//17
f 1//1 2//1 4//1
f 4//1 3//1 9//1
f 9//1 10//1 4//1
f 3//2 4//2 12//2
f 8//2 7//2 11//2
f 11//2 12//2 4//2
f 7//3 8//3 14//3
f 6//3 5//3 8//3
f 13//3 14//3 8//3
f 5//4 6//4 16//4
f 2//4 1//4 15//4
f 15//4 16//4 6//4
f 16//4 15//4 24//4
f 6//5 8//5 2//5
f 15//6 1//6 10//6
f 9//6 3//6 15//6
f 15//6 10//6 9//6
f 12//6 19//6 3//6
f 17//6 15//6 3//6
f 12//2 11//2 22//2
f 17//7 19//7 27//7
f 12//7 22//7 27//7
f 27//7 25//7 17//7
f 23//7 15//7 17//7
f 19//7 12//7 27//7
f 24//6 23//6 25//6
f 27//6 22//6 21//6
f 24//6 25//6 26//6
f 21//6 28//6 27//6
f 26//6 25//6 27//6
f 20//6 11//6 7//6
f 16//6 7//6 14//6
f 13//6 5//6 16//6
f 20//6 7//6 18//6
f 14//6 13//6 16//6
f 21//8 11//8 20//8
f 20//8 18//8 26//8
f 16//8 24//8 26//8
f 26//8 28//8 20//8
f 21//8 20//8 28//8
f 30//9 32//9 29//9
f 32//10 36//10 31//10
f 36//11 34//11 35//11
f 34//12 30//12 33//12
f 29//6 31//6 33//6
f 34//13 36//13 30//13
f 38//9 40//9 37//9
f 40//10 44//10 39//10
f 44//11 42//11 43//11
f 42//12 38//12 41//12
f 37//6 39//6 41//6
f 42//13 44//13 38//13
f 46//9 48//9 45//9
f 48//10 52//10 47//10
f 52//11 50//11 51//11
f 50//12 46//12 49//12
f 45//6 47//6 49//6
f 50//13 52//13 46//13
f 54//9 56//9 53//9
f 56//10 60//10 55//10
f 60//11 58//11 59//11
f 58//12 54//12 57//12
f 53//6 55//6 57//6
f 58//13 60//13 54//13
f 61//6 63//6 62//6
f 66//13 67//13 65//13
f 64//14 63//14 68//14
f 63//15 61//15 65//15
f 61//16 62//16 66//16
f 62//17 64//17 67//17
