# Blender v2.76 (sub 0) OBJ File: 'Falcon9Stage1_Box.blend'
# www.blender.org
v -1.562005 0.000000 1.562005
v 1.562010 0.000000 1.562005
v -1.562005 0.000000 -1.562005
v 1.562010 0.000000 -1.562005
v -1.562005 46.027611 -1.562005
v -1.562005 46.027611 1.562005
v 1.562005 46.027611 1.562005
v 1.562005 46.027611 -1.562005
v -0.163998 22.849808 0.164000
v -0.163998 23.177807 0.164000
v -0.163998 22.849808 -0.164000
v -0.163998 23.177807 -0.164000
v 0.164001 22.849808 0.164000
v 0.164001 23.177807 0.164000
v 0.164001 22.849808 -0.164000
v 0.164001 23.177807 -0.164000
vn 0.000000 -1.000000 0.000000
vn 0.000000 1.000000 -0.000000
vn 1.000000 0.000000 -0.000000
vn -0.000000 0.000000 -1.000000
vn -1.000000 0.000000 0.000000
vn 0.000000 0.000000 1.000000
s off
f 3//1 4//1 2//1
f 7//2 8//2 5//2
f 4//3 8//3 7//3
f 3//4 5//4 8//4
f 1//5 6//5 5//5
f 2//6 7//6 6//6
f 12//5 11//5 9//5
f 16//4 15//4 11//4
f 14//3 13//3 15//3
f 10//6 9//6 13//6
f 11//1 15//1 13//1
f 16//2 12//2 10//2
f 1//1 3//1 2//1
f 6//2 7//2 5//2
f 2//3 4//3 7//3
f 4//4 3//4 8//4
f 3//5 1//5 5//5
f 1//6 2//6 6//6
f 10//5 12//5 9//5
f 12//4 16//4 11//4
f 16//3 14//3 15//3
f 14//6 10//6 13//6
f 9//1 11//1 13//1
f 14//2 16//2 10//2
