# Blender v2.76 (sub 0) OBJ File: 'PistonCylinder.blend'
# www.blender.org
v 0.000000 0.000000 -0.192977
v -0.096488 0.000000 -0.167123
v -0.167123 0.000000 -0.096488
v -0.192977 0.000000 0.000000
v -0.167123 0.000000 0.096488
v -0.096488 0.000000 0.167123
v -0.000000 0.000000 0.192977
v 0.096488 0.000000 0.167123
v 0.167123 0.000000 0.096488
v 0.192977 0.000000 0.000000
v 0.167123 0.000000 -0.096488
v 0.096488 0.000000 -0.167123
v -0.096488 1.000000 -0.167123
v 0.000000 1.000000 -0.192977
v -0.167123 1.000000 -0.096488
v -0.192977 1.000000 0.000000
v -0.167123 1.000000 0.096488
v -0.096488 1.000000 0.167123
v -0.000000 1.000000 0.192977
v 0.096488 1.000000 0.167123
v 0.167123 1.000000 0.096488
v 0.192977 1.000000 0.000000
v 0.167123 1.000000 -0.096488
v 0.096488 1.000000 -0.167123
v -0.096488 0.000000 -0.167123
v 0.000000 0.000000 -0.192977
v -0.167123 0.000000 -0.096488
v -0.192977 0.000000 0.000000
v -0.167123 0.000000 0.096488
v -0.096488 0.000000 0.167123
v -0.000000 0.000000 0.192977
v 0.096488 0.000000 0.167123
v 0.167123 0.000000 0.096488
v 0.192977 0.000000 0.000000
v 0.167123 0.000000 -0.096488
v 0.096488 0.000000 -0.167123
v -0.096488 1.000000 -0.167123
v 0.000000 1.000000 -0.192977
v -0.167123 1.000000 -0.096488
v -0.192977 1.000000 0.000000
v -0.167123 1.000000 0.096488
v -0.096488 1.000000 0.167123
v -0.000000 1.000000 0.192977
v 0.096488 1.000000 0.167123
v 0.167123 1.000000 0.096488
v 0.192977 1.000000 0.000000
v 0.167123 1.000000 -0.096488
v 0.096488 1.000000 -0.167123
vn 0.000000 -1.000000 0.000000
vn 0.000000 1.000000 0.000000
vn 0.000000 0.000000 -1.000000
vn 0.500000 0.000000 -0.866000
vn -0.500000 0.000000 0.866000
vn -0.866000 0.000000 0.500000
vn 0.866000 0.000000 -0.500000
vn 1.000000 0.000000 0.000000
vn -1.000000 0.000000 0.000000
vn -0.866000 0.000000 -0.500000
vn 0.866000 0.000000 0.500000
vn 0.500000 0.000000 0.866000
vn -0.500000 0.000000 -0.866000
vn 0.000000 0.000000 1.000000
s off
f 35//1 31//1 27//1
f 41//2 47//2 38//2
f 27//1 25//1 26//1
f 26//1 36//1 35//1
f 35//1 34//1 33//1
f 33//1 32//1 31//1
f 31//1 30//1 29//1
f 29//1 28//1 31//1
f 27//1 26//1 35//1
f 35//1 33//1 31//1
f 31//1 28//1 27//1
f 38//2 37//2 39//2
f 39//2 40//2 41//2
f 41//2 42//2 43//2
f 43//2 44//2 45//2
f 45//2 46//2 47//2
f 47//2 48//2 38//2
f 38//2 39//2 41//2
f 41//2 43//2 45//2
f 45//2 47//2 41//2
s 1
f 1//3 14//3 24//4
f 6//5 18//5 17//6
f 11//7 23//7 22//8
f 4//9 16//9 15//10
f 9//11 21//11 20//12
f 2//13 13//13 14//3
f 7//14 19//14 18//5
f 12//4 24//4 23//7
f 5//6 17//6 16//9
f 10//8 22//8 21//11
f 3//10 15//10 13//13
f 8//12 20//12 19//14
f 12//4 1//3 24//4
f 5//6 6//5 17//6
f 10//8 11//7 22//8
f 3//10 4//9 15//10
f 8//12 9//11 20//12
f 1//3 2//13 14//3
f 6//5 7//14 18//5
f 11//7 12//4 23//7
f 4//9 5//6 16//9
f 9//11 10//8 21//11
f 2//13 3//10 13//13
f 7//14 8//12 19//14
